<svg width="1605" height="321" viewBox="0 0 1605 321" fill="none" xmlns="http://www.w3.org/2000/svg">
<!-- Pattern Logo - White version for dark backgrounds -->
<path d="M944.905 95.4391C947.488 95.4391 949.61 93.3284 949.61 90.7589V60.0165C949.61 57.447 947.488 55.2446 944.905 55.2446H895.003V4.77196C895.003 2.11067 892.881 0 890.206 0H857.737C855.154 0 853.033 2.11067 853.033 4.77196V191.521C853.033 231.165 872.219 250.252 912.436 250.252H944.998C947.58 250.252 949.702 248.142 949.702 245.48V216.206C949.702 213.637 947.58 211.434 944.905 211.526H919.908C900.814 211.526 894.91 206.571 894.91 188.217V95.4391H944.905Z" fill="white"/>
<path fill-rule="evenodd" clip-rule="evenodd" d="M827.013 243.829C827.013 246.399 824.891 248.51 822.216 248.51H789.747C787.164 248.51 785.043 246.399 785.043 243.829V220.704C770.284 241.168 747.316 253.557 717.061 253.557C664.207 253.557 620.3 209.141 620.3 151.877C620.3 94.614 664.207 50.1981 717.061 50.1981C747.408 50.1981 770.284 62.5868 785.043 82.6841V59.9255C785.043 57.356 787.164 55.1536 789.747 55.1536H822.216C824.799 55.1536 827.013 57.2643 827.013 59.9255V243.829ZM785.043 151.877C785.043 115.904 758.662 90.0256 723.61 90.0256C688.558 90.0256 662.177 115.904 662.177 151.877C662.177 187.851 688.558 213.729 723.61 213.729C758.662 213.729 785.043 187.851 785.043 151.877Z" fill="white"/>
<path fill-rule="evenodd" clip-rule="evenodd" d="M604.804 151.917C604.781 209.525 560.883 253.55 508.043 253.55C477.696 253.55 454.82 241.161 440.061 221.064V316.228C440.061 318.889 437.94 321 435.357 321H402.888C400.305 321 398.184 318.889 398.184 316.228V60.0107C398.184 57.4412 400.305 55.2387 402.888 55.2387H435.357C437.94 55.2387 440.061 57.3494 440.061 60.0107V83.1363C454.82 62.672 477.788 50.2832 508.043 50.2832C560.883 50.2832 604.781 94.6755 604.804 151.917ZM562.835 151.963C562.835 115.989 536.454 90.1107 501.402 90.1107C466.35 90.1107 439.969 115.989 439.969 151.963C439.969 187.936 466.35 213.814 501.402 213.814C536.454 213.814 562.835 187.936 562.835 151.963Z" fill="white"/>
<path fill-rule="evenodd" clip-rule="evenodd" d="M1221.89 194.46C1212.12 206.39 1195.6 215.291 1174.11 215.291C1143.03 215.291 1118.58 199.874 1111.94 169.682H1266.54C1267.37 164.268 1268.11 158.028 1268.11 152.246C1268.11 96.543 1231.58 50.2 1170.61 50.2C1109.64 50.2 1068.03 93.8817 1068.03 151.879C1068.03 209.877 1109.64 253.559 1173.74 253.559C1209.81 253.559 1237.76 239.426 1255.84 215.658C1257.5 213.456 1256.76 210.244 1254.36 208.867L1227.89 193.45C1225.86 192.257 1223.37 192.716 1221.89 194.46ZM1170.24 88.1003C1195.42 88.1003 1219.96 102.416 1225.77 135.636H1111.57C1117.38 106.638 1138.78 88.1003 1170.24 88.1003Z" fill="white"/>
<path d="M1605 129.846V243.823C1605 246.392 1602.88 248.595 1600.2 248.595H1567.74C1565.15 248.595 1562.94 246.484 1562.94 243.823V134.16C1562.94 104.794 1545.87 89.2848 1519.4 89.2848C1492.93 89.2848 1470.05 105.528 1470.05 144.988V243.823C1470.05 246.392 1467.93 248.595 1465.35 248.595H1432.88C1430.3 248.595 1428.17 246.484 1428.17 243.823V60.0107C1428.17 57.4412 1430.3 55.2387 1432.88 55.2387H1465.35C1467.93 55.2387 1470.05 57.3494 1470.05 60.0107V80.0162C1482.87 59.9189 1503.81 50.2832 1530.29 50.2832C1573.82 50.2832 1604.91 79.6491 1604.91 129.938L1605 129.846Z" fill="white"/>
<path d="M1327.71 87.7238C1339.43 61.3863 1363.13 51.7506 1387.58 51.7506V51.6588H1402.24C1404.82 51.6588 1406.95 53.8613 1406.95 56.4308V92.2204C1406.95 94.8817 1404.82 96.9924 1402.24 96.9924H1387.58C1359.26 96.9924 1327.71 107.821 1327.71 151.136V243.822C1327.71 246.391 1325.5 248.502 1322.91 248.502H1290.44C1287.86 248.502 1285.74 246.391 1285.74 243.822V60.0098C1285.74 57.3485 1287.86 55.2378 1290.44 55.2378H1322.91C1325.59 55.2378 1327.71 57.4402 1327.71 60.0098V87.7238Z" fill="white"/>
<path d="M1063.61 90.7589C1063.61 93.3284 1061.4 95.4391 1058.81 95.4391H1008.82V188.217C1008.82 206.571 1014.72 211.526 1033.82 211.526H1058.81C1061.49 211.434 1063.61 213.637 1063.61 216.206V245.48C1063.61 248.142 1061.49 250.252 1058.91 250.252H1026.34C986.127 250.252 966.941 231.165 966.941 191.521V4.77196C966.941 2.11067 969.062 0 971.645 0H1004.11C1006.79 0 1008.91 2.11067 1008.91 4.77196V55.2446H1058.81C1061.49 55.2446 1063.61 57.447 1063.61 60.0165V90.7589Z" fill="white"/>
<path d="M2.35216 192.898L193.845 2.38697C196.982 -0.733156 202.147 -0.733156 205.283 2.38697L252.419 49.2806C255.555 52.4925 255.555 57.5398 252.419 60.6599L60.9255 251.171C57.697 254.291 52.6237 254.291 49.4875 251.171L2.35216 204.277C-0.784052 201.157 -0.784052 196.018 2.35216 192.898Z" fill="white"/>
<path d="M160.087 192.9L272.714 80.8504C275.85 77.7302 281.015 77.7302 284.151 80.8504L331.287 127.744C334.423 130.956 334.423 136.003 331.287 139.123L218.66 251.172C215.432 254.293 210.358 254.293 207.222 251.172L160.087 204.279C156.951 201.159 156.951 196.02 160.087 192.9Z" fill="white"/>
</svg>
